<svg width="2049" height="614" viewBox="0 0 2049 614" fill="none" xmlns="http://www.w3.org/2000/svg">
<path fill-rule="evenodd" clip-rule="evenodd" d="M133.464 0.9585C131.401 1.2615 124.651 2.22301 118.464 3.09451C85.3905 7.75201 52.305 26.8605 36.7575 50.283C26.022 66.4575 19.782 92.0175 21.618 112.291C24.297 141.844 37.053 162.591 62.7795 179.233C68.532 182.955 73.686 186 74.2335 186C74.781 186 83.004 189.077 92.5095 192.836C102.015 196.595 116.299 201.341 124.252 203.384C142.584 208.089 169.908 217.026 177.714 220.869C184.848 224.382 192.896 231.675 195.842 237.3C198.591 242.548 198.555 252.505 195.768 257.896C190.045 268.96 175.821 275.088 155.964 275.04C148.951 275.022 139.164 274.155 134.214 273.111C106.257 267.219 70.557 251.138 48.222 234.375C41.352 229.219 35.277 225.01 34.722 225.022C34.167 225.036 26.1285 240.372 16.857 259.105L0 293.166L4.107 296.559C14.7075 305.314 40.7055 320.505 56.5755 327.216C90.924 341.741 118.45 347.262 155.964 347.152C203.656 347.014 236.55 335.985 261.923 311.628C275.444 298.646 281.783 288.114 287.424 269.25C290.679 258.371 291.1 227.91 288.142 217.5C280.683 191.255 263.688 171.451 238.02 159.09C221.903 151.329 200.212 142.954 192.834 141.645C186.469 140.515 139.653 124.597 133.385 121.431C130.454 119.952 125.817 116.493 123.081 113.745C109.451 100.058 111.282 84.1935 127.357 76.686C148.326 66.8925 189.617 75.2145 239.139 99.2145C248.997 103.992 257.184 107.755 257.331 107.575C257.48 107.397 262.766 96.1125 269.081 82.5C275.394 68.8875 282.732 53.5035 285.387 48.315L290.214 38.8785L286.464 35.9715C275.617 27.5625 241.914 13.32 219.552 7.695C195.994 1.77 151.602 -1.704 133.464 0.9585ZM1277.96 1.00949C1275.9 1.33949 1267.8 2.646 1259.96 3.9105C1233.22 8.226 1201.86 21.144 1174.9 38.9535C1160.18 48.6735 1132.35 75.0495 1120.19 90.7995C1097.96 119.597 1080.31 162.688 1075.36 200.25C1072.91 218.815 1074.43 259.177 1078.24 276.75C1084.45 305.388 1100.81 341.928 1123.06 376.884L1127.6 384.018L1135.49 370.134C1153.47 338.496 1179.71 293.093 1184.44 285.422L1187.43 280.592L1182.86 267.422C1178.51 254.885 1178.29 253.094 1178.28 230.25C1178.27 207.093 1178.44 205.724 1183.23 191.25C1196.68 150.593 1225.79 121.962 1267.61 108.251C1282.47 103.376 1294.49 102.024 1323.07 102.012L1349.43 102L1355.95 90.375C1361.6 80.319 1374.44 57.8835 1378.49 51C1379.22 49.7625 1383.67 42 1388.38 33.75C1393.09 25.5 1399.55 14.532 1402.73 9.375L1408.51 0L1345.11 0.204002C1310.24 0.316502 1280.03 0.679495 1277.96 1.00949ZM350.964 106.5H316.464V162H350.964V219.063C350.964 294.02 352.742 303.006 371.448 322.617C392.939 345.149 425.186 351.132 472.308 341.336C483.254 339.06 500.964 331.052 500.964 328.38C500.964 326.54 486.023 274.308 485.042 272.721C484.676 272.128 481.19 273.03 477.296 274.723C468.611 278.5 447.592 280.245 442.648 277.599C440.809 276.615 437.993 273.659 436.389 271.029C433.652 266.54 433.474 263.093 433.47 214.125L433.464 162H496.464V106.5H433.521L432.714 38.25L350.964 37.452V106.5ZM627.714 92.5335C600.179 96.102 542.964 114.578 542.964 119.901C542.964 120.758 546.921 130.749 551.758 142.104C556.594 153.459 561.387 165.327 562.409 168.479C563.855 172.94 564.811 173.966 566.739 173.121C578.344 168.033 605.901 158.812 615.276 156.882C628.607 154.135 648.999 153.781 657.714 156.144C673.098 160.314 683.268 171.428 684.987 185.943L685.883 193.5H644.359C596.095 193.5 586.515 194.827 566.964 204.225C546.27 214.171 532.965 230.403 527.96 251.812C525.558 262.087 526.74 284.721 530.198 294.658C536.148 311.758 551.574 329.742 566.857 337.395C589.584 348.775 636.301 348.383 660.082 336.609C663.859 334.74 671.116 329.729 676.207 325.475L685.464 317.74V342H766.596L766.089 251.625C765.602 164.796 765.459 160.889 762.465 152.057C754.665 129.047 740.795 113.443 719.1 103.276C700.226 94.4325 684.006 91.4925 655.464 91.7445C642.677 91.857 630.189 92.2125 627.714 92.5335ZM787.916 96.375C788.34 97.407 791.354 104.325 794.612 111.75C800.67 125.56 807.134 140.718 818.277 167.25C821.742 175.5 829.465 193.725 835.441 207.75C849.748 241.328 861.505 269.118 868.441 285.75C871.537 293.175 876.761 305.325 880.049 312.75C890.067 335.372 890.208 336.132 885.929 344.577C883.896 348.588 879.213 354.654 875.523 358.056C869.985 363.161 867.407 364.413 860.763 365.227C847.937 366.799 837.45 363.955 827.174 356.118C824.264 353.898 821.649 352.344 821.364 352.666C821.079 352.987 819.647 355.613 818.183 358.5C816.717 361.387 814.009 365.775 812.164 368.25C810.318 370.725 805.317 378.825 801.051 386.25C796.783 393.675 791.956 401.878 790.324 404.481L787.356 409.211L798.543 416.694C827.424 436.009 868.092 440.271 902.687 427.607C928.044 418.323 948.863 393.819 962.334 357.399C964.4 351.817 969.717 338.138 974.151 327C978.585 315.862 985.62 297.975 989.784 287.25L998.513 264.761L1007.25 242.25C1012.69 228.225 1020.11 209.325 1023.72 200.25C1027.33 191.175 1035.09 171.263 1040.96 156C1046.82 140.737 1054.57 121.05 1058.17 112.251C1061.77 103.452 1064.32 95.8575 1063.84 95.376C1063.36 94.8945 1044.88 94.5 1022.77 94.5H982.584L977.031 112.125C973.977 121.819 964.266 151.688 955.452 178.5C946.638 205.312 937.57 233.295 935.301 240.684L931.175 254.119L922.242 230.184C917.331 217.02 909.707 196.462 905.303 184.5C900.897 172.538 893.256 151.95 888.321 138.75C883.386 125.55 877.857 110.195 876.035 104.625L872.719 94.5H829.93C796.288 94.5 787.308 94.9005 787.916 96.375ZM1208.4 160.875C1200.17 173.779 1197.22 180.522 1193 196.023C1189.64 208.337 1188.97 213.945 1188.91 230.25C1188.87 240.975 1189.51 250.933 1190.34 252.381C1191.75 254.847 1198.09 255.016 1291.26 255.064L1390.68 255.115L1398.07 242.818C1402.14 236.055 1405.46 230.241 1405.46 229.897C1405.46 229.555 1402.66 224.432 1399.24 218.513C1395.81 212.594 1389.5 201.675 1385.21 194.25C1380.92 186.825 1373.77 174.517 1369.31 166.9L1361.21 153.05L1213.43 153L1208.4 160.875ZM685.464 249.276C685.464 267.109 678.963 276.725 661.464 284.775C650.67 289.742 631.451 291.05 622.053 287.457C614.675 284.637 607.874 278.774 605.871 273.506C603.633 267.62 604.239 256.21 607.092 250.5C608.798 247.083 612.051 244.071 616.407 241.875C622.707 238.698 624.928 238.5 654.282 238.5H685.464V249.276ZM1341.66 317.625C1326.75 342.646 1313.96 364.636 1313.96 365.25C1313.96 365.604 1310.25 372.017 1305.71 379.5C1301.18 386.983 1297.46 393.515 1297.46 394.016C1297.46 394.517 1294.88 399.049 1291.72 404.088C1288.56 409.126 1283.74 417.469 1281.01 422.625C1278.28 427.782 1275.63 431.98 1275.13 431.958C1274.63 431.934 1270.58 425.689 1266.13 418.083C1226.74 350.655 1223.46 344.982 1220.18 338.625C1217.05 332.546 1214.37 331.458 1212.79 335.625C1212.25 337.068 1208.13 344.495 1203.63 352.125C1199.14 359.755 1191.86 372.245 1187.45 379.875C1183.04 387.505 1175.7 400.163 1171.14 408C1166.58 415.837 1161.39 425.132 1159.61 428.654L1156.37 435.059L1164.87 449.654C1169.55 457.682 1175.86 468.637 1178.89 474C1181.92 479.363 1189.72 492.862 1196.21 504C1202.7 515.138 1209.59 527.036 1211.52 530.439L1215.01 536.627L1209.61 546.189C1206.64 551.448 1203.66 556.425 1203 557.25C1202.34 558.075 1198.8 564.15 1195.15 570.75C1191.49 577.35 1184.67 589.355 1179.98 597.428C1175.3 605.501 1171.46 612.42 1171.46 612.803C1171.46 613.187 1198.03 613.5 1230.51 613.5H1289.55L1297.85 599.625C1305.93 586.12 1329.93 544.636 1341.03 525C1350.84 507.641 1359.3 493.053 1367.98 478.5C1372.66 470.663 1380.42 457.163 1385.24 448.5C1390.05 439.837 1397.63 426.774 1402.08 419.471C1406.53 412.167 1410.63 405.03 1411.19 403.611C1411.75 402.192 1416.1 394.5 1420.84 386.516C1432.58 366.765 1444.95 345.503 1448.94 338.25L1452.23 332.25L1437.77 306H1348.59L1341.66 317.625Z" fill="#003B95"/>
<path d="M1575.04 119.717C1589.51 103.622 1605.22 94.743 1627.57 90.036C1631.22 89.2665 1641.98 88.854 1651.46 89.1195C1678.65 89.8815 1693.98 95.979 1711.23 112.884C1721.13 122.578 1728.5 134.919 1732.82 149.01C1736.02 159.466 1736.12 162.118 1736.6 249.375L1737.1 339H1656.07L1655.64 264.375C1655.22 191.156 1655.15 189.636 1651.97 183.69C1647.09 174.576 1637.94 165.918 1630.99 163.836C1622.65 161.335 1607.1 161.526 1597.96 164.242C1587.4 167.376 1577.69 176.397 1571.64 188.669L1566.71 198.681L1565.85 339H1484.96V91.5H1565.96L1566.02 129.75L1575.04 119.717Z" fill="#FFA300"/>
<path fill-rule="evenodd" clip-rule="evenodd" d="M1967.96 123.363L1957.61 113.6C1939.15 96.1815 1919.94 89.265 1890.71 89.508C1857.82 89.7825 1836.72 98.256 1814.85 119.973C1796.02 138.667 1785.95 158.949 1781.93 186.267C1779.38 203.562 1780.76 244.961 1784.27 256.5C1793.55 287.043 1809.73 309.874 1832.45 324.477C1845.16 332.643 1856.31 336.847 1872.98 339.754C1907.35 345.748 1938.11 337.629 1958.59 317.152L1967.96 307.777V339H2048.96V0H1967.96V123.363ZM1960.33 182.74C1955.49 173.251 1944.77 162.716 1936.2 159.03C1927.51 155.291 1910.37 153.814 1901.54 156.042C1867.5 164.629 1851.22 209.818 1868.24 248.438C1872.87 258.94 1880.62 267.077 1891 272.336C1898.92 276.347 1901.09 276.75 1914.71 276.75C1927.28 276.75 1930.84 276.198 1936.63 273.344C1965.55 259.091 1976.99 215.389 1960.33 182.74Z" fill="#FFA300"/>
</svg>
