<svg width="700" height="1137" viewBox="0 0 700 1137" fill="none" xmlns="http://www.w3.org/2000/svg">
<path fill-rule="evenodd" clip-rule="evenodd" d="M488.858 0.613279C360.142 1.85728 358.488 1.99728 310.858 15.5233C269.678 27.2193 232.22 43.2893 203.872 61.4233C197.814 65.2993 192.858 67.9673 192.858 67.3513C192.858 66.7373 191.298 67.7933 189.392 69.6993C187.486 71.6053 181.412 76.0653 175.892 79.6113C170.374 83.1573 163.4 88.3533 160.396 91.1573C157.392 93.9633 151.556 98.7913 147.426 101.887C143.296 104.985 137.796 109.997 135.206 113.025C132.614 116.053 129.536 117.939 128.366 117.215C127.196 116.493 126.808 116.819 127.502 117.943C128.678 119.847 122.54 127.135 120.696 126.023C120.234 125.745 120.036 125.847 120.254 126.247C120.472 126.649 117.178 130.699 112.934 135.247C108.69 139.797 99.692 150.269 92.936 158.519C86.182 166.769 78.968 175.545 76.908 178.019C74.846 180.495 73.576 182.519 74.084 182.519C75.01 182.519 59.168 206.641 57.008 208.519C56.376 209.069 55.704 210.433 55.514 211.551C55.324 212.669 52.14 218.969 48.436 225.551C44.732 232.133 38.594 244.719 34.796 253.519C30.998 262.319 26.982 270.181 25.874 270.989C24.766 271.797 24.426 272.471 25.12 272.489C25.816 272.505 22.856 283.537 18.542 297.003C14.23 310.469 8.33002 333.645 5.43202 348.503C0.68002 372.877 0.150006 380.213 0.0120064 423.519C-0.107994 460.929 0.646006 476.191 3.43001 492.695C8.47201 522.581 17.38 555.249 26.986 579.087C35.17 599.393 53.404 637.239 57.306 642.019C58.43 643.395 58.562 644.533 57.602 644.549C56.644 644.567 56.838 645.241 58.034 646.049C61.052 648.085 81.128 682.511 79.322 682.549C78.516 682.567 78.862 683.241 80.088 684.049C81.314 684.857 85.17 690.597 88.658 696.803C92.144 703.011 96.768 708.551 98.93 709.117C101.094 709.683 102.42 709.429 101.878 708.553C101.042 707.199 104.64 699.973 112.85 686.519C113.856 684.869 120.796 672.875 128.27 659.865C135.744 646.855 144.798 631.105 148.392 624.865C151.984 618.625 156.44 610.567 158.29 606.959C160.142 603.349 162.726 600.807 164.032 601.309C165.464 601.859 166.052 600.873 165.516 598.819C165.026 596.949 166.748 592.291 169.34 588.469C171.932 584.647 174.654 579.947 175.39 578.025C176.126 576.101 179.908 569.559 183.794 563.485C187.678 557.411 190.858 552.083 190.858 551.645C190.858 551.207 195 543.843 200.062 535.281L209.268 519.711L202.782 500.291C199.214 489.609 196.862 479.395 197.554 477.591C198.246 475.787 197.988 474.821 196.982 475.443C193.97 477.303 191.858 455.467 191.862 422.519C191.866 398.669 192.772 387.713 195.792 375.019C197.95 365.943 200.476 358.519 201.404 358.519C202.334 358.519 202.624 357.759 202.05 356.829C200.916 354.995 207.072 337.649 212.386 327.703C214.204 324.303 215.768 321.069 215.864 320.519C216.07 319.335 223.834 305.215 227.378 299.575C234.484 288.271 242.504 278.815 243.91 280.083C244.784 280.873 244.932 280.525 244.24 279.309C242.728 276.655 251.528 267.857 253.612 269.939C254.414 270.741 254.518 269.963 253.846 268.209C252.454 264.583 275.668 243.629 295.858 230.283C306.6 223.183 334.544 208.749 339.816 207.577C342.048 207.081 347.356 205.191 354.354 202.401C373.308 194.843 414.06 190.399 462.858 190.565C482.108 190.631 500.23 190.647 503.128 190.603C507.786 190.529 510.206 187.325 523.962 163.019C532.522 147.895 542.46 130.879 546.044 125.209C549.63 119.539 556.322 107.839 560.916 99.2093C565.51 90.5793 570.75 82.3313 572.562 80.8773C574.376 79.4253 575.648 77.4453 575.392 76.4773C575.134 75.5093 584.358 58.3213 595.886 38.2813C607.416 18.2393 616.626 1.67128 616.354 1.46328C614.162 -0.222715 591.154 -0.374721 488.858 0.613279ZM256.61 285.119C254.824 286.479 248.784 295.675 243.188 305.555C237.592 315.435 232.304 324.455 231.436 325.597C230.568 326.741 229.664 328.541 229.426 329.597C229.19 330.655 226.688 338.209 223.866 346.387C213.38 376.793 211.854 387.035 211.928 426.519C211.974 450.561 212.832 465.445 214.378 469.019L216.758 474.519H400.692H584.624L595.84 455.463C602.008 444.981 607.902 436.927 608.934 437.565C609.968 438.205 610.272 437.319 609.612 435.597C608.95 433.877 609.482 431.177 610.794 429.597C612.656 427.351 612.508 425.505 610.114 421.123C608.432 418.041 605.902 413.269 604.496 410.519C603.09 407.769 601.386 405.069 600.71 404.519C600.034 403.969 596.416 397.673 592.67 390.527C588.924 383.383 585.322 377.083 584.666 376.527C582.834 374.979 560.658 336.057 560.234 333.645C560.026 332.475 559.272 331.069 558.554 330.519C556.678 329.081 538.854 298.681 536.334 292.623C535.168 289.815 534.38 286.777 534.584 285.871C534.79 284.963 534.096 284.753 533.046 285.403C531.994 286.053 530.57 285.669 529.878 284.551C527.902 281.355 260.828 281.909 256.61 285.119ZM503.542 567.869C504.194 568.521 502.956 571.305 500.792 574.057C498.628 576.807 496.858 579.747 496.858 580.587C496.858 581.429 493.256 587.833 488.854 594.819C484.452 601.803 480.016 609.435 478.996 611.777C475.414 620.001 452.164 659.527 450.52 660.185C449.606 660.553 448.858 662.127 448.858 663.685C448.858 665.245 447.958 666.519 446.858 666.519C445.758 666.519 445.076 667.193 445.342 668.019C446.284 670.935 426.198 704.347 424.234 703.133C423.134 702.453 422.86 702.903 423.622 704.135C424.38 705.365 422.72 709.985 419.93 714.405C417.14 718.823 414.858 722.883 414.858 723.425C414.858 725.045 396.028 755.417 394.202 756.743C393.274 757.415 392.704 758.601 392.932 759.377C393.642 761.779 382.724 780.519 380.616 780.519C379.518 780.519 379.112 781.313 379.712 782.283C380.312 783.255 379.016 786.321 376.83 789.099C374.646 791.877 372.858 795.207 372.858 796.501C372.858 802.857 366.794 794.587 349.818 765.081C339.602 747.327 331.758 732.287 332.384 731.659C333.012 731.033 332.474 730.519 331.192 730.519C329.908 730.519 328.858 729.245 328.858 727.685C328.858 726.127 328.152 724.553 327.29 724.185C326.428 723.819 319.614 712.719 312.146 699.519C295.136 669.445 296.768 672.273 286.172 654.519C281.25 646.269 273.946 633.895 269.944 627.019C265.942 620.145 261.954 614.519 261.084 614.519C260.212 614.519 258.42 616.543 257.1 619.019C255.78 621.495 253.602 625.319 252.262 627.519C250.92 629.719 247.194 636.279 243.982 642.095C239.98 649.341 237.218 652.317 235.216 651.549C233.048 650.717 232.83 651.087 234.368 652.973C235.868 654.811 234.924 658.161 230.98 665.013C227.974 670.235 224.916 674.061 224.186 673.513C223.456 672.967 223.238 673.049 223.704 673.699C224.17 674.347 221.918 679.521 218.7 685.199C215.482 690.875 210.026 700.693 206.576 707.019C202.982 713.603 198.924 718.533 197.08 718.549C195.002 718.569 194.654 719.103 196.1 720.049C198.47 721.603 168.894 774.841 164.924 776.163C163.774 776.547 163.276 777.577 163.818 778.453C164.358 779.329 162.478 783.467 159.64 787.649C148.76 803.683 147.814 801.183 194.566 880.075C198.006 885.881 200.62 891.281 200.374 892.075C200.13 892.869 201.64 895.487 203.73 897.893C205.82 900.297 210.304 907.235 213.694 913.309C217.084 919.383 228.632 939.527 239.358 958.075C250.084 976.621 258.858 992.503 258.858 993.367C258.858 994.231 256.158 998.939 252.858 1003.83C249.558 1008.72 246.858 1013.13 246.858 1013.63C246.858 1017.34 217.974 1064.21 216.32 1063.19C215.132 1062.45 214.836 1062.87 215.63 1064.15C216.994 1066.36 214.648 1071.52 206.826 1083.52C204.676 1086.82 202.04 1091.51 200.966 1093.94C199.892 1096.38 194.136 1106.46 188.174 1116.35C182.212 1126.24 177.828 1134.82 178.43 1135.43C180.1 1137.1 395.54 1136.67 398.088 1134.99C399.314 1134.18 403.318 1128.12 406.986 1121.52C410.652 1114.92 414.15 1109.07 414.758 1108.52C415.366 1107.97 417.212 1104.82 418.862 1101.52C423.272 1092.69 439.14 1065.68 440.6 1064.52C441.292 1063.97 442.026 1062.57 442.232 1061.4C442.666 1058.94 460.728 1028.01 462.6 1026.52C463.292 1025.97 464.026 1024.56 464.234 1023.39C464.66 1020.97 486.842 982.047 488.666 980.519C489.322 979.969 493.008 973.361 496.858 965.835C500.708 958.307 505.786 950.255 508.144 947.939C510.5 945.623 511.978 942.555 511.43 941.123C510.88 939.691 511.426 938.519 512.644 938.519C513.862 938.519 514.858 937.695 514.858 936.687C514.858 933.977 536.732 895.833 539.138 894.345C540.272 893.645 540.984 892.413 540.72 891.609C540.238 890.139 550.212 872.221 557.146 862.099C559.188 859.119 560.858 856.213 560.858 855.643C560.858 855.071 578.976 823.309 601.12 785.061C623.264 746.813 643.172 712.369 645.362 708.519C647.552 704.669 660.55 682.045 674.246 658.245L699.146 614.969L693 604.079C689.62 598.089 687.306 592.589 687.856 591.855C688.408 591.119 688.26 590.967 687.528 591.517C685.452 593.073 674.53 572.667 676.09 570.145C676.902 568.829 676.578 568.455 675.306 569.243C674.112 569.981 672.558 569.651 671.854 568.513C671.002 567.133 642.456 566.481 586.466 566.563C540.206 566.631 502.89 567.219 503.542 567.869Z" fill="#003B95"/>
</svg>
