<?xml version="1.0" standalone="no"?>
<!DOCTYPE svg PUBLIC "-//W3C//DTD SVG 20010904//EN"
 "http://www.w3.org/TR/2001/REC-SVG-20010904/DTD/svg10.dtd">
<svg version="1.0" xmlns="http://www.w3.org/2000/svg"
 width="512.000000pt" height="512.000000pt" viewBox="0 0 512.000000 512.000000"
 preserveAspectRatio="xMidYMid meet">

<g transform="translate(0.000000,512.000000) scale(0.100000,-0.100000)"
fill="hsl(216, 100%, 29%)" stroke="none">
<path d="M327 5109 c-94 -22 -182 -96 -226 -189 l-26 -55 -3 -1599 c-3 -1751
-6 -1633 54 -1656 21 -9 66 3 86 23 2 1 5 722 8 1602 5 1753 1 1626 62 1681
48 44 67 48 241 52 92 2 167 2 167 0 0 -33 74 -358 86 -375 8 -13 29 -33 47
-44 31 -19 51 -19 669 -17 628 3 637 3 665 24 41 31 53 62 79 213 13 75 26
151 29 169 l6 32 143 0 c171 0 230 -14 274 -64 18 -21 34 -55 41 -86 13 -62
16 -1320 2 -1320 -4 0 -19 8 -32 18 -13 10 -36 23 -51 30 l-28 12 0 350 c0
382 -2 393 -58 454 -53 57 -90 66 -273 66 l-166 0 -27 -27 c-22 -22 -26 -33
-22 -57 13 -62 23 -66 193 -66 150 0 155 -1 178 -25 l25 -24 0 -323 0 -323
-65 -21 -66 -20 -30 62 c-124 260 -400 463 -684 504 -472 67 -928 -233 -1044
-687 -65 -254 -15 -538 132 -752 46 -68 152 -176 227 -231 79 -58 80 -61 269
-395 78 -137 155 -262 171 -277 53 -49 147 -49 200 0 16 15 93 140 171 277
184 326 192 338 252 382 111 80 222 200 277 301 13 23 26 42 30 42 3 0 41 -81
83 -179 l77 -179 0 -220 0 -219 -62 -7 c-124 -12 -233 -90 -289 -204 -20 -39
-24 -63 -24 -142 0 -85 3 -101 28 -150 54 -104 114 -152 253 -198 l89 -30 0
-397 c0 -381 -1 -397 -19 -411 -17 -12 -164 -14 -964 -14 -631 0 -950 3 -963
10 -19 11 -19 43 -19 1914 0 1752 1 1905 16 1917 14 11 144 14 707 18 659 3
690 4 708 22 29 29 25 83 -7 108 -26 21 -34 21 -723 21 -656 0 -698 -2 -736
-19 -49 -23 -89 -64 -109 -113 -14 -33 -16 -243 -16 -1950 0 -1829 1 -1915 19
-1953 19 -43 78 -100 118 -116 33 -12 1973 -12 2006 0 40 16 99 73 118 116 17
36 19 74 19 421 l0 382 60 -16 60 -16 0 -408 c0 -447 -4 -489 -52 -544 -59
-67 -11 -65 -1234 -62 -1202 3 -1126 -1 -1180 60 -50 55 -49 38 -54 641 -5
548 -6 569 -24 583 -33 24 -82 18 -106 -13 -21 -27 -21 -30 -18 -597 l3 -571
26 -55 c33 -70 99 -136 169 -169 l55 -26 1155 0 1155 0 55 26 c70 33 136 99
169 169 l26 55 3 433 3 434 27 -7 c131 -32 132 -32 164 -104 87 -197 124 -248
208 -291 32 -16 40 -25 35 -38 -15 -34 -17 -111 -5 -148 22 -69 150 -358 175
-396 33 -49 101 -88 167 -95 41 -4 67 0 118 20 71 27 1061 457 1125 489 105
53 159 156 136 260 -12 53 -149 365 -181 411 -12 18 -39 45 -61 60 -37 27 -38
28 -25 60 23 54 28 113 16 173 -10 48 -349 843 -416 975 -51 102 -168 172
-284 172 -74 0 -103 -10 -485 -177 -181 -79 -331 -143 -332 -143 0 1 -87 199
-192 439 l-190 437 -3 823 -3 823 -26 55 c-33 70 -99 136 -169 169 l-55 26
-1135 2 c-642 1 -1151 -3 -1173 -8z m1783 -151 c-1 -7 -11 -69 -23 -138 l-23
-125 -580 -3 -580 -2 -23 117 c-12 65 -25 128 -28 141 l-5 22 631 0 c498 0
631 -3 631 -12z m458 -1553 c51 -22 79 -51 112 -116 16 -30 130 -289 255 -575
124 -285 234 -527 244 -537 10 -10 31 -19 47 -19 18 -1 189 68 423 171 429
186 447 191 521 150 20 -11 44 -34 53 -49 10 -15 105 -230 213 -477 159 -364
196 -457 196 -494 0 -49 -18 -93 -50 -122 -11 -10 -262 -124 -558 -253 -574
-251 -591 -257 -660 -221 -45 23 -59 44 -115 172 -62 144 -73 162 -111 181
-16 8 -178 57 -361 109 -182 51 -357 103 -388 114 -116 44 -168 153 -120 256
25 55 61 85 119 100 55 15 71 13 197 -22 119 -33 173 -29 221 18 38 37 56 86
47 133 -3 17 -125 305 -270 639 -146 335 -267 626 -270 648 -14 101 81 207
185 209 18 0 49 -7 70 -15z m110 -1480 c-2 -2 -15 -1 -30 2 -27 5 -28 7 -27
67 l1 61 29 -64 c17 -35 29 -65 27 -66z m2039 -788 c28 -28 163 -340 163 -376
0 -16 -8 -35 -17 -43 -18 -15 -970 -435 -1111 -489 -59 -24 -76 -27 -96 -17
-14 6 -27 16 -30 22 -2 6 -36 83 -75 171 -93 209 -93 243 -3 289 36 18 1005
442 1072 469 26 10 74 -2 97 -26z"/>
<path d="M1025 4899 c-51 -29 -60 -85 -20 -124 l24 -25 275 0 c274 0 275 0
302 23 35 30 37 79 5 110 -21 21 -28 22 -294 24 -186 2 -278 -1 -292 -8z"/>
<path d="M1825 4875 c-31 -30 -32 -66 -2 -101 57 -66 166 3 126 79 -28 52 -84
63 -124 22z"/>
<path d="M1449 1591 c-23 -19 -24 -23 -24 -183 0 -188 11 -233 77 -304 68 -74
115 -87 328 -94 155 -4 190 -8 213 -23 40 -26 59 -61 59 -110 1 -52 -23 -97
-66 -123 -29 -18 -66 -19 -663 -24 -689 -5 -654 -2 -668 -62 -6 -22 -1 -33 23
-58 l30 -30 611 0 c401 0 627 4 661 11 150 32 253 190 220 338 -20 90 -74 160
-155 204 -36 19 -61 22 -230 27 -281 8 -286 12 -295 262 -4 142 -7 159 -25
172 -28 21 -68 20 -96 -3z"/>
</g>
</svg>
