<?xml version="1.0" standalone="no"?>
<!DOCTYPE svg PUBLIC "-//W3C//DTD SVG 20010904//EN"
 "http://www.w3.org/TR/2001/REC-SVG-20010904/DTD/svg10.dtd">
<svg version="1.0" xmlns="http://www.w3.org/2000/svg"
 width="512.000000pt" height="512.000000pt" viewBox="0 0 512.000000 512.000000"
 preserveAspectRatio="xMidYMid meet">

<g transform="translate(0.000000,512.000000) scale(0.100000,-0.100000)"
fill="hsl(216, 100%, 29%)" stroke="none">
<path d="M2080 4968 c-13 -7 -35 -29 -48 -48 -35 -51 -26 -94 42 -196 l56 -84
-159 0 -159 0 -92 109 c-112 133 -128 141 -271 141 -111 0 -154 -12 -187 -55
-37 -46 -29 -90 54 -304 85 -220 110 -270 155 -301 40 -29 515 -206 587 -220
30 -5 89 -10 129 -10 40 0 73 -2 73 -5 0 -2 -54 -86 -120 -186 -66 -100 -123
-194 -127 -207 -9 -36 17 -102 50 -126 26 -19 42 -21 161 -21 161 0 107 -29
563 302 l332 241 253 4 c280 5 321 13 411 78 70 51 92 92 92 175 0 63 -4 77
-29 113 -43 63 -129 110 -247 136 -14 3 -49 24 -77 46 -103 83 -113 85 -417
88 l-269 3 -191 138 c-297 215 -257 196 -409 199 -93 2 -138 -1 -156 -10z
m363 -228 c70 -50 127 -93 127 -95 0 -3 -58 -5 -130 -5 l-129 0 -61 90 c-33
49 -60 92 -60 95 0 3 29 5 63 5 l64 0 126 -90z m-822 -106 c63 -72 106 -113
133 -125 39 -18 84 -19 804 -19 848 0 784 5 889 -72 34 -25 83 -50 109 -57 95
-25 115 -33 144 -58 39 -32 39 -64 0 -96 -62 -53 -48 -52 -870 -52 l-765 0
-249 94 c-137 52 -256 103 -265 113 -13 15 -123 286 -147 360 -5 16 2 18 60
18 l65 0 92 -106z m1218 -652 c-56 -44 -477 -347 -504 -364 -28 -17 -145 -27
-145 -12 0 3 57 93 128 200 l127 194 209 0 c205 0 208 0 185 -18z"/>
<path d="M1131 3265 c-108 -24 -227 -88 -310 -165 l-34 -32 -86 41 c-188 88
-405 94 -580 16 -75 -34 -111 -71 -118 -122 -9 -69 11 -91 174 -193 81 -52
154 -98 161 -105 9 -8 1 -22 -36 -62 -58 -62 -102 -142 -134 -243 -20 -66 -23
-95 -23 -235 1 -178 11 -219 61 -252 16 -10 46 -18 69 -18 35 0 62 15 218 123
97 67 185 126 194 129 14 5 15 0 9 -38 -9 -62 11 -304 35 -423 27 -131 80
-288 140 -413 27 -57 49 -104 49 -106 0 -2 -54 -57 -120 -123 -110 -110 -120
-123 -120 -157 0 -44 31 -77 71 -77 22 0 52 24 141 113 240 241 515 425 816
547 l115 47 35 -71 c26 -52 61 -97 129 -166 75 -77 93 -101 93 -125 0 -16 -12
-95 -26 -176 -18 -95 -24 -159 -20 -183 11 -56 59 -96 156 -130 97 -34 153
-37 199 -10 35 21 46 37 176 257 48 81 97 154 109 161 13 9 120 22 291 35 157
13 291 29 319 38 31 10 65 31 91 57 41 41 49 58 115 238 l21 57 42 -16 c112
-42 336 -160 455 -239 l133 -89 -148 -6 c-166 -6 -196 -15 -263 -75 -69 -63
-84 -101 -88 -236 -3 -77 -8 -121 -16 -128 -7 -5 -124 -32 -260 -60 -136 -28
-264 -59 -285 -69 -75 -39 -141 -143 -141 -225 0 -12 -3 -31 -6 -44 l-6 -22
-1239 0 c-846 0 -1239 3 -1239 10 0 16 47 106 106 201 30 48 54 98 54 111 0
33 -39 68 -76 68 -37 0 -57 -20 -122 -125 -81 -132 -114 -203 -114 -250 0 -68
43 -131 105 -154 40 -15 4444 -15 4484 0 62 23 105 86 105 154 0 55 -54 161
-174 340 -417 624 -1094 1047 -1823 1138 l-100 13 -3 407 -2 407 210 0 c163 0
219 3 246 15 65 27 291 198 313 236 49 86 23 134 -136 249 -171 124 -184 130
-286 130 -98 0 -127 -17 -127 -74 0 -53 33 -76 112 -76 65 0 65 0 176 -77 61
-43 112 -81 112 -85 0 -4 -50 -43 -111 -87 l-112 -81 -623 0 -624 0 0 165 0
165 406 0 c240 0 413 4 423 10 46 24 47 105 2 130 -14 7 -159 10 -467 8 l-446
-3 -34 -37 -34 -38 0 -227 c0 -330 -6 -323 310 -323 l200 0 -2 -407 -3 -407
-105 -13 c-226 -29 -491 -104 -713 -203 -113 -50 -119 -52 -133 -34 -73 93
-139 218 -178 337 -25 80 -62 274 -53 283 2 3 94 -45 204 -106 210 -115 237
-124 293 -95 51 26 64 65 57 175 -8 121 -29 204 -79 307 -62 128 -163 222
-282 262 l-50 18 154 122 c85 67 161 134 169 148 19 36 16 91 -6 122 -30 41
-132 104 -208 130 -90 29 -242 37 -334 16z m252 -150 c62 -16 137 -51 137 -63
-1 -4 -93 -79 -206 -167 -114 -88 -212 -169 -220 -180 -19 -27 -17 -59 5 -86
17 -22 30 -25 124 -30 86 -4 114 -10 160 -32 69 -35 140 -110 178 -191 29 -63
63 -194 57 -226 -2 -13 -40 4 -183 83 -429 236 -494 269 -517 263 -13 -3 -155
-97 -317 -210 -162 -113 -298 -203 -303 -200 -13 8 -9 173 6 246 21 94 61 170
122 228 64 60 122 87 229 106 129 23 122 18 149 121 20 82 48 135 99 190 122
132 314 191 480 148z m-813 -114 c36 -11 79 -29 97 -40 l31 -20 -23 -62 -23
-63 -68 -18 c-38 -10 -75 -15 -83 -12 -8 2 -83 48 -168 102 l-153 97 32 13
c88 37 248 38 358 3z m2170 -791 l0 -400 -95 0 -95 0 0 400 0 400 95 0 95 0 0
-400z m-1745 79 c60 -34 53 -15 71 -196 18 -189 103 -421 209 -573 17 -25 34
-50 38 -57 5 -7 -14 -24 -50 -46 -32 -20 -93 -61 -136 -91 -42 -31 -80 -56
-83 -56 -9 0 -80 161 -112 255 -52 153 -73 273 -79 461 -3 94 -2 197 1 228 7
50 11 59 44 81 20 14 38 25 39 25 2 0 28 -14 58 -31z m2008 -659 c138 -21 336
-66 351 -80 14 -13 -61 -214 -89 -240 -26 -25 -17 -23 -418 -59 -281 -25 -266
-16 -409 -256 -59 -99 -111 -186 -115 -194 -7 -11 -19 -10 -71 4 -34 10 -64
21 -66 24 -3 4 7 65 20 136 46 242 37 280 -101 413 -78 76 -146 174 -127 185
16 10 183 47 277 62 236 38 507 40 748 5z m1426 -737 c155 -168 253 -300 355
-476 31 -54 56 -104 56 -112 0 -13 -113 -15 -875 -15 l-875 0 0 28 c0 42 18
97 38 116 12 10 108 34 268 66 137 27 266 57 286 66 82 36 108 93 108 234 0
108 11 146 52 174 19 13 61 16 260 16 l237 0 90 -97z"/>
<path d="M4345 2861 c-198 -57 -360 -220 -421 -426 -13 -43 -18 -91 -17 -170
0 -104 4 -124 71 -368 73 -269 83 -291 144 -323 15 -8 40 -14 55 -14 50 0 543
139 612 172 97 48 217 170 265 270 63 132 80 264 51 402 -46 217 -225 403
-445 461 -76 20 -239 18 -315 -4z m264 -142 c129 -29 248 -125 308 -247 38
-75 38 -77 38 -196 0 -115 -1 -124 -32 -189 -42 -89 -128 -178 -207 -217 -57
-27 -522 -159 -529 -149 -2 2 -31 110 -65 239 -70 266 -77 340 -43 449 47 150
179 275 328 310 52 12 149 13 202 0z"/>
<path d="M4392 2514 c-90 -45 -152 -143 -152 -239 0 -55 28 -130 67 -174 95
-111 266 -123 381 -26 89 75 114 220 57 325 -70 128 -225 178 -353 114z m168
-139 c41 -21 60 -53 60 -101 0 -48 -25 -85 -69 -104 -72 -29 -151 24 -151 101
0 51 13 75 53 99 38 24 68 25 107 5z"/>
</g>
</svg>
