<?xml version="1.0" standalone="no"?>
<!DOCTYPE svg PUBLIC "-//W3C//DTD SVG 20010904//EN"
 "http://www.w3.org/TR/2001/REC-SVG-20010904/DTD/svg10.dtd">
<svg version="1.0" xmlns="http://www.w3.org/2000/svg"
 width="512.000000pt" height="512.000000pt" viewBox="0 0 512.000000 512.000000"
 preserveAspectRatio="xMidYMid meet">

<g transform="translate(0.000000,512.000000) scale(0.100000,-0.100000)"
fill="hsl(216, 100%, 29%)" stroke="none">
<path d="M3473 5108 c-12 -6 -25 -18 -29 -27 -13 -27 -17 -503 -5 -548 21 -79
112 -85 141 -9 6 16 10 116 10 237 l0 209 670 0 670 0 -2 -642 -3 -641 -333
-178 -332 -177 -333 177 -332 177 -6 294 c-3 162 -6 296 -7 297 -24 26 -49 43
-63 43 -38 0 -69 -23 -79 -59 -13 -47 -13 -585 0 -632 7 -25 20 -41 47 -56 21
-12 196 -106 388 -209 263 -141 359 -187 385 -187 26 0 127 49 405 198 204
108 381 208 395 221 l25 24 3 701 c2 453 -1 713 -8 738 -6 25 -18 42 -35 49
-35 16 -1539 16 -1572 0z"/>
<path d="M3861 4794 c-167 -83 -166 -315 1 -398 69 -34 128 -34 197 0 167 83
166 315 -1 398 -69 34 -128 34 -197 0z"/>
<path d="M4217 4363 c-253 -252 -465 -471 -472 -488 -23 -52 12 -104 70 -105
25 0 88 59 488 458 253 251 465 470 472 486 15 35 3 81 -25 96 -55 30 -51 33
-533 -447z"/>
<path d="M1234 4436 c-235 -54 -417 -226 -474 -451 -16 -64 -20 -111 -20 -257
l0 -178 -320 0 c-221 0 -327 -4 -345 -12 -16 -7 -29 -24 -35 -49 -7 -24 -9
-621 -8 -1739 l3 -1702 28 -24 28 -24 2464 0 c1847 0 2470 3 2489 12 17 7 30
24 36 47 14 49 14 2683 0 2732 -6 23 -19 40 -36 47 -18 9 -267 12 -939 12
l-914 0 -3 326 -3 326 -28 24 -28 24 -318 0 -318 0 -6 178 c-7 210 -16 260
-68 369 -71 149 -204 266 -364 320 -69 24 -96 28 -195 28 -94 0 -127 -4 -181
-23 l-67 -23 -63 22 c-82 27 -230 34 -315 15z m190 -142 c13 -5 6 -18 -34 -61
-57 -62 -122 -190 -140 -273 -6 -30 -14 -135 -17 -232 l-6 -178 -169 0 -168 0
0 173 c0 237 27 324 134 430 78 78 149 115 271 141 32 6 112 7 129 0z m537 -8
c169 -36 302 -162 355 -335 9 -32 14 -101 14 -223 l0 -178 -170 0 -170 0 0
143 c0 78 -5 175 -10 215 -16 122 -77 251 -164 344 -20 22 -29 39 -23 42 24 9
104 5 168 -8z m-290 -103 c62 -56 113 -133 141 -211 16 -46 21 -92 25 -239 l6
-183 -227 0 -226 0 0 178 c0 190 6 226 55 323 26 50 144 179 164 179 5 0 33
-21 62 -47z m-941 -1042 c0 -266 6 -313 40 -331 35 -19 77 -12 99 16 20 26 21
39 21 300 l0 274 470 0 470 0 0 -259 c0 -266 6 -313 40 -331 35 -19 77 -12 99
16 20 26 21 39 21 300 l0 274 270 0 270 0 0 -1625 0 -1625 -1170 0 -1170 0 0
1625 0 1625 270 0 270 0 0 -259z m3700 -1716 l0 -1275 -620 0 -620 0 0 875 c0
692 3 876 13 879 94 25 165 53 213 84 152 98 246 252 269 438 11 87 -31 137
-100 120 -30 -8 -55 -53 -55 -99 0 -91 -64 -220 -144 -290 -35 -31 -127 -81
-168 -91 l-28 -6 0 320 0 320 620 0 620 0 0 -1275z m500 0 l0 -1275 -170 0
-170 0 0 1275 0 1275 170 0 170 0 0 -1275z"/>
<path d="M4461 4194 c-167 -83 -166 -315 1 -398 69 -34 128 -34 197 0 167 83
166 315 -1 398 -69 34 -128 34 -197 0z"/>
</g>
</svg>
