<?xml version="1.0" standalone="no"?>
<!DOCTYPE svg PUBLIC "-//W3C//DTD SVG 20010904//EN"
 "http://www.w3.org/TR/2001/REC-SVG-20010904/DTD/svg10.dtd">
<svg version="1.0" xmlns="http://www.w3.org/2000/svg"
 width="512.000000pt" height="512.000000pt" viewBox="0 0 512.000000 512.000000"
 preserveAspectRatio="xMidYMid meet">

<g transform="translate(0.000000,512.000000) scale(0.100000,-0.100000)"
fill="hsl(216, 100%, 29%)" stroke="none">
<path d="M158 4681 c-69 -14 -129 -69 -147 -135 -9 -30 -11 -396 -9 -1323 l3
-1281 30 -43 c55 -77 78 -83 338 -89 l227 -5 -36 -50 c-161 -226 -194 -538
-84 -804 77 -188 229 -345 423 -437 224 -106 504 -101 728 11 188 95 348 275
414 465 l12 35 1459 5 1459 5 42 23 c24 12 55 41 70 64 l28 41 3 287 c3 270 2
288 -16 310 -27 33 -87 33 -113 1 -18 -21 -19 -44 -19 -286 0 -241 -1 -263
-18 -278 -17 -16 -131 -17 -1439 -17 l-1421 0 -1 108 c-2 378 -263 709 -630
801 -161 41 -318 36 -469 -15 -40 -13 -75 -24 -77 -24 -3 0 -5 131 -5 290 l0
290 915 0 916 0 24 25 c32 31 34 84 4 111 -20 18 -50 19 -770 22 l-749 2 0
195 0 195 1860 0 1860 0 0 -195 0 -195 -969 -2 c-937 -3 -970 -4 -990 -22 -30
-27 -28 -80 4 -111 l24 -25 966 0 965 0 0 -298 0 -299 23 -21 c33 -31 80 -29
106 5 21 26 21 26 19 893 l-3 867 -28 40 c-15 22 -46 50 -70 64 -42 24 -45 24
-349 27 l-308 3 0 297 c0 187 -4 312 -11 337 -17 61 -82 120 -147 134 -60 12
-3978 14 -4044 2z m1007 -452 c116 -166 212 -305 213 -310 2 -5 -96 -9 -225
-9 -227 0 -230 0 -282 -26 -34 -17 -62 -41 -79 -67 l-27 -41 -3 -903 -2 -903
-295 0 c-281 0 -295 1 -305 19 -14 27 -14 2495 0 2522 10 18 25 19 403 19
l392 -1 210 -300z m1837 -9 l217 -310 -823 0 -822 0 -166 238 c-92 130 -189
270 -217 310 l-52 72 823 0 823 0 217 -310z m1198 284 c6 -14 10 -149 10 -310
l0 -284 -403 0 -402 0 -217 310 -217 310 610 0 609 0 10 -26z m748 -760 c21
-15 22 -20 22 -210 l0 -194 -2030 0 -2030 0 0 188 c0 192 4 212 40 225 8 3
906 6 1995 6 1777 1 1983 -1 2003 -15z m-3467 -1818 c195 -68 347 -219 421
-418 40 -108 50 -264 23 -383 -51 -230 -214 -413 -447 -501 -67 -26 -84 -28
-218 -29 -137 0 -150 2 -231 31 -254 91 -428 308 -457 570 -17 149 16 307 90
432 42 73 167 198 240 240 168 99 396 122 579 58z"/>
<path d="M1202 1777 c-15 -16 -22 -36 -22 -65 0 -38 -3 -43 -38 -61 -105 -53
-158 -171 -121 -268 26 -69 115 -133 253 -179 88 -30 106 -47 106 -95 0 -94
-147 -118 -249 -40 -63 48 -141 22 -141 -47 0 -35 64 -94 134 -122 54 -23 56
-25 56 -60 0 -80 73 -118 125 -65 18 17 25 35 25 63 0 37 2 39 42 51 26 8 60
32 93 65 64 64 84 127 66 204 -26 102 -76 146 -228 197 -105 36 -149 70 -139
108 3 15 21 37 39 48 46 29 105 21 171 -25 29 -20 65 -36 79 -36 38 0 67 33
67 74 0 28 -8 42 -47 75 -25 23 -68 49 -95 58 -45 17 -48 20 -48 54 0 78 -79
119 -128 66z"/>
<path d="M3531 2113 c-18 -9 -45 -34 -60 -57 -25 -38 -26 -46 -26 -171 0 -126
1 -133 27 -172 53 -80 38 -78 603 -78 l500 0 37 23 c20 13 47 40 60 60 21 34
23 49 23 168 0 125 -1 132 -27 171 -49 75 -34 73 -600 73 -447 0 -507 -2 -537
-17z m1009 -228 l0 -95 -305 0 -305 0 0 95 0 95 305 0 305 0 0 -95z"/>
</g>
</svg>
