<svg width="1500" height="1500" viewBox="0 0 1500 1500" fill="none" xmlns="http://www.w3.org/2000/svg">
<rect width="1500" height="1500" rx="750" fill="#003B95"/>
<path fill-rule="evenodd" clip-rule="evenodd" d="M889.285 182.372C760.569 183.616 758.915 183.756 711.285 197.282C670.105 208.978 632.647 225.048 604.299 243.182C598.241 247.058 593.285 249.726 593.285 249.11C593.285 248.496 591.725 249.552 589.819 251.458C587.913 253.364 581.839 257.824 576.319 261.37C570.801 264.916 563.827 270.112 560.823 272.916C557.819 275.722 551.983 280.55 547.853 283.646C543.723 286.744 538.223 291.756 535.633 294.784C533.041 297.812 529.963 299.698 528.793 298.974C527.623 298.252 527.235 298.578 527.929 299.702C529.105 301.606 522.967 308.894 521.123 307.782C520.661 307.504 520.463 307.606 520.681 308.006C520.899 308.408 517.605 312.458 513.361 317.006C509.117 321.556 500.119 332.028 493.363 340.278C486.609 348.528 479.395 357.304 477.335 359.778C475.273 362.254 474.003 364.278 474.511 364.278C475.437 364.278 459.595 388.4 457.435 390.278C456.803 390.828 456.131 392.192 455.941 393.31C455.751 394.428 452.567 400.728 448.863 407.31C445.159 413.892 439.021 426.478 435.223 435.278C431.425 444.078 427.409 451.94 426.301 452.748C425.193 453.556 424.853 454.23 425.547 454.248C426.243 454.264 423.283 465.296 418.969 478.762C414.657 492.228 408.757 515.404 405.859 530.262C401.107 554.636 400.577 561.972 400.439 605.278C400.319 642.688 401.073 657.95 403.857 674.454C408.899 704.34 417.807 737.008 427.413 760.846C435.597 781.152 453.831 818.998 457.733 823.778C458.857 825.154 458.989 826.292 458.029 826.308C457.071 826.326 457.265 827 458.461 827.808C461.479 829.844 481.555 864.27 479.749 864.308C478.943 864.326 479.289 865 480.515 865.808C481.741 866.616 485.597 872.356 489.085 878.562C492.571 884.77 497.195 890.31 499.357 890.876C501.521 891.442 502.847 891.187 502.305 890.312C501.469 888.958 505.067 881.732 513.277 868.278C514.283 866.628 521.223 854.634 528.697 841.624C536.171 828.614 545.225 812.864 548.819 806.624C552.411 800.384 556.867 792.326 558.717 788.718C560.569 785.108 563.153 782.565 564.459 783.067C565.891 783.617 566.479 782.632 565.943 780.578C565.453 778.708 567.175 774.05 569.767 770.228C572.359 766.406 575.081 761.706 575.817 759.784C576.553 757.86 580.335 751.318 584.221 745.244C588.105 739.17 591.285 733.841 591.285 733.403C591.285 732.965 595.427 725.602 600.489 717.04L609.695 701.47L603.209 682.05C599.641 671.368 597.289 661.154 597.981 659.35C598.673 657.546 598.415 656.58 597.409 657.202C594.397 659.062 592.285 637.226 592.289 604.278C592.293 580.428 593.199 569.472 596.219 556.778C598.377 547.702 600.903 540.278 601.831 540.278C602.761 540.278 603.051 539.518 602.477 538.588C601.343 536.754 607.499 519.408 612.813 509.462C614.631 506.062 616.195 502.828 616.291 502.278C616.497 501.094 624.261 486.974 627.805 481.334C634.911 470.03 642.931 460.574 644.337 461.842C645.211 462.632 645.359 462.284 644.667 461.068C643.155 458.414 651.955 449.616 654.039 451.698C654.841 452.5 654.945 451.722 654.273 449.968C652.881 446.342 676.095 425.388 696.285 412.042C707.027 404.942 734.971 390.508 740.243 389.336C742.475 388.84 747.783 386.95 754.781 384.16C773.735 376.602 814.487 372.158 863.285 372.324C882.535 372.39 900.657 372.406 903.555 372.362C908.213 372.288 910.633 369.084 924.389 344.778C932.949 329.654 942.887 312.638 946.471 306.968C950.057 301.298 956.749 289.598 961.343 280.968C965.937 272.338 971.177 264.09 972.989 262.636C974.803 261.184 976.075 259.204 975.819 258.236C975.561 257.268 984.785 240.08 996.313 220.04C1007.84 199.998 1017.05 183.43 1016.78 183.222C1014.59 181.536 991.581 181.384 889.285 182.372ZM657.037 466.878C655.251 468.238 649.211 477.434 643.615 487.314C638.019 497.194 632.731 506.214 631.863 507.356C630.995 508.5 630.091 510.3 629.853 511.356C629.617 512.414 627.115 519.968 624.293 528.146C613.807 558.552 612.281 568.794 612.355 608.278C612.401 632.32 613.259 647.204 614.805 650.778L617.185 656.278H801.119H985.051L996.267 637.222C1002.43 626.74 1008.33 618.686 1009.36 619.324C1010.39 619.964 1010.7 619.078 1010.04 617.356C1009.38 615.636 1009.91 612.936 1011.22 611.356C1013.08 609.11 1012.93 607.264 1010.54 602.882C1008.86 599.8 1006.33 595.028 1004.92 592.278C1003.52 589.528 1001.81 586.828 1001.14 586.278C1000.46 585.728 996.843 579.432 993.097 572.286C989.351 565.142 985.749 558.842 985.093 558.286C983.261 556.738 961.085 517.816 960.661 515.404C960.453 514.234 959.699 512.828 958.981 512.278C957.105 510.84 939.281 480.44 936.761 474.382C935.595 471.574 934.807 468.536 935.011 467.63C935.217 466.722 934.523 466.512 933.473 467.162C932.421 467.812 930.997 467.428 930.305 466.31C928.329 463.114 661.255 463.668 657.037 466.878ZM903.969 749.627C904.621 750.279 903.383 753.064 901.219 755.816C899.055 758.566 897.285 761.506 897.285 762.346C897.285 763.188 893.683 769.592 889.281 776.578C884.879 783.562 880.443 791.194 879.423 793.536C875.841 801.76 852.591 841.286 850.947 841.944C850.033 842.312 849.285 843.886 849.285 845.444C849.285 847.004 848.385 848.278 847.285 848.278C846.185 848.278 845.503 848.952 845.769 849.778C846.711 852.694 826.625 886.106 824.661 884.892C823.561 884.212 823.287 884.662 824.049 885.894C824.807 887.124 823.147 891.743 820.357 896.163C817.567 900.581 815.285 904.642 815.285 905.184C815.285 906.804 796.455 937.175 794.629 938.501C793.701 939.173 793.131 940.359 793.359 941.135C794.069 943.537 783.151 962.277 781.043 962.277C779.945 962.277 779.539 963.071 780.139 964.041C780.739 965.013 779.443 968.08 777.257 970.858C775.073 973.636 773.285 976.965 773.285 978.259C773.285 984.615 767.221 976.346 750.245 946.84C740.029 929.086 732.185 914.046 732.811 913.418C733.439 912.792 732.901 912.278 731.619 912.278C730.335 912.278 729.285 911.004 729.285 909.444C729.285 907.886 728.579 906.312 727.717 905.944C726.855 905.578 720.041 894.478 712.573 881.278C695.563 851.204 697.195 854.032 686.599 836.278C681.677 828.028 674.373 815.654 670.371 808.778C666.369 801.904 662.381 796.278 661.511 796.278C660.639 796.278 658.847 798.302 657.527 800.778C656.207 803.254 654.029 807.078 652.689 809.278C651.347 811.478 647.621 818.038 644.409 823.854C640.407 831.099 637.645 834.076 635.643 833.308C633.475 832.476 633.257 832.845 634.795 834.731C636.295 836.569 635.351 839.92 631.407 846.772C628.401 851.994 625.343 855.82 624.613 855.272C623.883 854.726 623.665 854.808 624.131 855.458C624.597 856.106 622.345 861.279 619.127 866.957C615.909 872.633 610.453 882.452 607.003 888.778C603.409 895.362 599.351 900.292 597.507 900.308C595.429 900.328 595.081 900.862 596.527 901.808C598.897 903.362 569.321 956.599 565.351 957.921C564.201 958.305 563.703 959.336 564.245 960.212C564.785 961.088 562.905 965.225 560.067 969.407C549.187 985.441 548.241 982.942 594.993 1061.83C598.433 1067.64 601.047 1073.04 600.801 1073.83C600.557 1074.63 602.067 1077.25 604.157 1079.65C606.247 1082.06 610.731 1088.99 614.121 1095.07C617.511 1101.14 629.059 1121.29 639.785 1139.83C650.511 1158.38 659.285 1174.26 659.285 1175.13C659.285 1175.99 656.585 1180.7 653.285 1185.59C649.985 1190.48 647.285 1194.89 647.285 1195.39C647.285 1199.09 618.401 1245.97 616.747 1244.95C615.559 1244.21 615.263 1244.63 616.057 1245.91C617.421 1248.12 615.075 1253.27 607.253 1265.28C605.103 1268.58 602.467 1273.27 601.393 1275.7C600.319 1278.13 594.563 1288.22 588.601 1298.11C582.639 1308 578.255 1316.58 578.857 1317.18C580.527 1318.85 795.967 1318.43 798.515 1316.75C799.741 1315.94 803.745 1309.88 807.413 1303.28C811.079 1296.68 814.577 1290.83 815.185 1290.28C815.793 1289.73 817.639 1286.58 819.289 1283.28C823.699 1274.45 839.567 1247.44 841.027 1246.28C841.719 1245.73 842.453 1244.32 842.659 1243.16C843.093 1240.7 861.155 1209.77 863.027 1208.28C863.719 1207.73 864.453 1206.32 864.661 1205.15C865.087 1202.73 887.269 1163.81 889.093 1162.28C889.749 1161.73 893.435 1155.12 897.285 1147.59C901.135 1140.07 906.213 1132.01 908.571 1129.7C910.927 1127.38 912.405 1124.31 911.857 1122.88C911.307 1121.45 911.853 1120.28 913.071 1120.28C914.289 1120.28 915.285 1119.45 915.285 1118.45C915.285 1115.74 937.159 1077.59 939.565 1076.1C940.699 1075.4 941.411 1074.17 941.147 1073.37C940.665 1071.9 950.639 1053.98 957.573 1043.86C959.615 1040.88 961.285 1037.97 961.285 1037.4C961.285 1036.83 979.403 1005.07 1001.55 966.819C1023.69 928.571 1043.6 894.128 1045.79 890.278C1047.98 886.428 1060.98 863.804 1074.67 840.004L1099.57 796.728L1093.43 785.838C1090.05 779.848 1087.73 774.348 1088.28 773.614C1088.83 772.878 1088.69 772.726 1087.95 773.276C1085.88 774.832 1074.96 754.425 1076.52 751.903C1077.33 750.587 1077 750.214 1075.73 751.002C1074.54 751.74 1072.98 751.41 1072.28 750.272C1071.43 748.892 1042.88 748.24 986.893 748.322C940.633 748.39 903.317 748.977 903.969 749.627Z" fill="white"/>
</svg>
